<mxfile host="app.diagrams.net" modified="2024-01-06T01:26:49.011Z" agent="Mozilla/5.0 (Windows NT 10.0; Win64; x64) AppleWebKit/537.36 (KHTML, like Gecko) Chrome/120.0.0.0 Safari/537.36 Edg/120.0.0.0" version="22.1.16" etag="5g1RUUoJw1oZ3mt1y7bT" type="github">
  <diagram name="第 1 页" id="IaE66Ou8Z-00DjVT38T2">
    <mxGraphModel>
      <root>
        <mxCell id="0" />
        <mxCell id="1" parent="0" />
      </root>
    </mxGraphModel>
  </diagram>
</mxfile>
